PathFileType	4	(X/Y/Z)	/Users/itak/Documents/Research/Walk-IL/dataset/trc/00304_00010.trc
DataRate	CameraRate	NumFrames	NumMarkers	Units	OrigDataRate	OrigDataStartFrame	OrigNumFrames
100.000000	100.000000	4	56	mm	100.000000	405	540
Frame#	Time	RPSI			L3			STRN			T10			C7			CLAV			RBAK			LBAK			LSHO			LUPA			LAEL			LAOL			LWTS			LWPS			LFRA			LIFD			LHPS			LHTS			RSHO			RUPA			RAEL			RAOL			RWTS			RWPS			RFRA			RIFD			RHPS			RBHD			LFHD			RFHD			LBHD			LHIP			RHIP			RASI			LASI			LKNE			LTHI			LANK			LTIP			LTOE			LMT1			LMT5			LHEE			RKNE			RTHI			RANK			RTIP			RTOE			RMT1			RMT5			LPSI			RHEE			RHTS			*53			*54			*55			
		X1	Y1	Z1	X2	Y2	Z2	X3	Y3	Z3	X4	Y4	Z4	X5	Y5	Z5	X6	Y6	Z6	X7	Y7	Z7	X8	Y8	Z8	X9	Y9	Z9	X10	Y10	Z10	X11	Y11	Z11	X12	Y12	Z12	X13	Y13	Z13	X14	Y14	Z14	X15	Y15	Z15	X16	Y16	Z16	X17	Y17	Z17	X18	Y18	Z18	X19	Y19	Z19	X20	Y20	Z20	X21	Y21	Z21	X22	Y22	Z22	X23	Y23	Z23	X24	Y24	Z24	X25	Y25	Z25	X26	Y26	Z26	X27	Y27	Z27	X28	Y28	Z28	X29	Y29	Z29	X30	Y30	Z30	X31	Y31	Z31	X32	Y32	Z32	X33	Y33	Z33	X34	Y34	Z34	X35	Y35	Z35	X36	Y36	Z36	X37	Y37	Z37	X38	Y38	Z38	X39	Y39	Z39	X40	Y40	Z40	X41	Y41	Z41	X42	Y42	Z42	X43	Y43	Z43	X44	Y44	Z44	X45	Y45	Z45	X46	Y46	Z46	X47	Y47	Z47	X48	Y48	Z48	X49	Y49	Z49	X50	Y50	Z50	X51	Y51	Z51	X52	Y52	Z52	X53	Y53	Z53	X54	Y54	Z54	X55	Y55	Z55	X56	Y56	Z56	

406	4.05	504.6337890625	960.14453125	-69.32196044921875	403.005859375	1029.331176757812	-95.73239135742188	441.2984313964844	1212.739624023438	-337.3055419921875	387.4143676757812	1145.221435546875	-81.58364868164062	370.2576599121094	1391.782470703125	-125.3357620239258	418.5747375488281	1311.69384765625	-276.5960998535156	436.9585571289062	1254.999633789062	-57.66085815429688	264.9737854003906	1350.58642578125	-135.3983306884766	236.9243011474609	1354.076171875	-237.4956817626953	167.4660797119141	1229.493408203125	-241.9095764160156	182.3964080810547	1029.92919921875	-289.6428527832031	212.3903198242188	1005.321655273438	-210.9213714599609	326.0280151367188	864.8600463867188	-391.5625610351562	262.1932678222656	832.5780639648438	-403.9428405761719	210.0232543945312	938.4671020507812	-335.546630859375	388.7994995117188	705.6179809570312	-456.8240356445312	297.0950927734375	756.341064453125	-434.4486083984375	352.3092956542969	788.0505981445312	-452.6445007324219	542.1685180664062	1374.385620117188	-150.3613128662109	604.9254760742188	1319.78125	-123.1999435424805	647.5385131835938	1060.712890625	-66.72313690185547	555.0177001953125	1049.394165039062	-77.36373138427734	653.8753051757812	819.1764526367188	-137.3750305175781	701.1900634765625	832.6260986328125	-67.62496948242188	672.5745849609375	994.239013671875	-72.57958984375	655.6077880859375	638.9442749023438	-102.1470336914062	709.7973022460938	718.1314697265625	-66.60758972167969	457.4890441894531	1550.851928710938	-141.8209991455078	338.5120849609375	1593.389404296875	-313.1925048828125	431.1478881835938	1595.4013671875	-310.9716491699219	311.2710571289062	1538.533081054688	-147.6042022705078	242.0699615478516	923.1564331054688	-181.7368316650391	616.8748168945312	907.9625244140625	-159.82958984375	558.4395141601562	920.3238525390625	-284.7122802734375	307.7387084960938	922.82763671875	-316.4313354492188	285.9552917480469	461.7611999511719	-165.0524291992188	261.6723937988281	602.204833984375	-193.3349304199219	264.7879028320312	61.61933898925781	50.57729339599609	265.3265991210938	254.9186553955078	-56.05035781860352	434.0039978027344	33.56856918334961	-79.56968688964844	421.43212890625	36.15467071533203	0.7589760422706604	324.9005737304688	41.2745246887207	-55.39596176147461	288.0942687988281	74.009765625	121.4700927734375	603.2850952148438	476.0240173339844	-345.3980102539062	626.7861328125	718.873046875	-261.6784973144531	617.3499755859375	36.21724319458008	-446.7040405273438	601.2183227539062	364.8487548828125	-401.2409362792969	530.9629516601562	76.69837188720703	-622.3723754882812	501.3111877441406	57.28567123413086	-563.1099243164062	616.8552856445312	42.95320129394531	-552.2257690429688	329.5587768554688	966.5466918945312	-98.91258239746094	575.8206176757812	26.31567764282227	-389.0655822753906	683.792724609375	703.75732421875	-131.6310424804688	nan	nan	nan	nan	nan	nan	nan	nan	nan	
407	4.06	509.0923461914062	961.5184326171875	-77.90522003173828	407.6928100585938	1029.328979492188	-104.2699356079102	444.3614501953125	1213.078369140625	-345.015625	392.3432312011719	1144.993041992188	-89.42384338378906	375.2306823730469	1391.870971679688	-131.8217163085938	422.36474609375	1312.088012695312	-284.0192260742188	442.2994689941406	1254.605102539062	-65.23129272460938	269.8479919433594	1350.720092773438	-141.3265533447266	240.9155578613281	1354.463623046875	-243.2230072021484	171.3816833496094	1229.669921875	-246.9648742675781	185.4553680419922	1029.720092773438	-293.8960266113281	217.4563293457031	1005.744873046875	-215.6941223144531	324.7459411621094	859.3718872070312	-394.3768615722656	259.9527587890625	827.9070434570312	-404.4920654296875	210.923828125	936.52587890625	-338.3034057617188	382.9861450195312	696.8999633789062	-455.6677551269531	292.8299255371094	750.139892578125	-433.1411437988281	348.3248596191406	780.0753173828125	-453.3072814941406	546.9940185546875	1374.1904296875	-158.1834564208984	609.873779296875	1319.251708984375	-131.7671661376953	653.0774536132812	1059.804565429688	-77.18882751464844	560.3994750976562	1048.847778320312	-86.30445098876953	658.7638549804688	818.6039428710938	-148.5426177978516	706.6220092773438	831.9061889648438	-79.17540740966797	678.0496215820312	993.44482421875	-83.48112487792969	661.1904296875	638.2833251953125	-114.1225051879883	715.4616088867188	717.4728393554688	-78.64338684082031	462.2933349609375	1551.182495117188	-148.342529296875	342.1917114257812	1594.199951171875	-318.8481750488281	434.8533325195312	1596.215454101562	-317.2348327636719	315.9876708984375	1538.888671875	-153.2571258544922	245.8189086914062	922.759521484375	-188.5065765380859	620.9231567382812	909.3057250976562	-169.2906341552734	561.3759765625	920.5317993164062	-293.6654663085938	311.287109375	923.209716796875	-324.3350219726562	288.3835754394531	461.8072204589844	-170.3022766113281	264.5234069824219	602.1309204101562	-199.0362548828125	265.3140563964844	63.9876594543457	49.71346282958984	266.8562927246094	256.2779235839844	-59.05923843383789	434.0961608886719	33.48527145385742	-79.79997253417969	421.6928405761719	36.95536804199219	0.2420089989900589	325.1895141601562	41.57805633544922	-55.86765670776367	288.6439514160156	77.57023620605469	120.3608169555664	605.0072021484375	476.6210632324219	-353.0752563476562	629.4491577148438	720.153564453125	-271.2265930175781	617.5947265625	35.91376113891602	-448.1114807128906	602.1906127929688	364.7831420898438	-407.7984008789062	530.6888427734375	71.18656921386719	-624.9036254882812	501.2605285644531	53.32427597045898	-565.084228515625	616.8133544921875	39.71684646606445	-553.8309936523438	333.7445068359375	966.80419921875	-106.4144058227539	576.1434326171875	27.45977020263672	-390.2856750488281	689.1011352539062	703.256103515625	-143.5702972412109	nan	nan	nan	nan	nan	nan	nan	nan	nan	
408	4.07	513.2844848632812	963.318359375	-86.51464080810547	412.2091369628906	1029.69921875	-112.9005279541016	447.3495178222656	1213.773071289062	-352.7854309082031	397.1839599609375	1145.119995117188	-97.22361755371094	380.1971130371094	1392.273681640625	-138.317626953125	426.0872497558594	1312.80029296875	-291.4313354492188	447.6311950683594	1254.571899414062	-72.80892181396484	274.7192077636719	1351.185913085938	-147.2649383544922	244.9120788574219	1355.19580078125	-248.9550170898438	175.3436126708984	1230.222412109375	-252.1650390625	188.6739807128906	1029.968994140625	-298.4784545898438	222.4889068603516	1006.530639648438	-220.8453521728516	323.0314331054688	853.9979858398438	-396.9964294433594	257.2492980957031	823.5773315429688	-404.7972106933594	211.7130584716797	935.0379638671875	-341.173828125	376.1699523925781	688.1161499023438	-453.7509460449219	287.811767578125	744.2369995117188	-431.3115234375	343.6346435546875	772.0723266601562	-453.4406433105469	551.7916259765625	1374.33837890625	-166.0453338623047	614.7944946289062	1319.04931640625	-140.4235076904297	658.66943359375	1059.183715820312	-88.00847625732422	565.8280029296875	1048.560180664062	-95.571044921875	663.7672119140625	818.4867553710938	-160.2175445556641	712.1118774414062	831.5136108398438	-91.16241455078125	683.55810546875	992.9584350585938	-94.78396606445312	666.8312377929688	637.9349975585938	-126.4040298461914	721.2076416015625	717.147216796875	-91.09150695800781	467.0994567871094	1551.820678710938	-154.8616027832031	345.8720703125	1595.29736328125	-324.4917602539062	438.5681762695312	1597.299926757812	-323.4927673339844	320.7167358398438	1539.563842773438	-158.8907928466797	249.4647064208984	922.4933471679688	-195.3745422363281	624.7922973632812	911.1829223632812	-178.6925048828125	564.2620849609375	921.274169921875	-302.607666015625	314.5525512695312	923.6005859375	-332.0223999023438	290.8936157226562	461.9901123046875	-175.9101409912109	267.4333190917969	602.1998901367188	-205.0074768066406	265.8875427246094	66.64920043945312	48.65975189208984	268.4681701660156	257.823974609375	-62.35442733764648	434.1895446777344	33.40108108520508	-80.05929565429688	421.9685668945312	37.8483772277832	-0.3348681330680847	325.4868469238281	41.87898254394531	-56.42830276489258	289.2715759277344	81.53038024902344	119.0040817260742	607.0645751953125	477.5378112792969	-360.6078796386719	632.2073974609375	721.9952392578125	-280.6524353027344	618.056396484375	35.59914016723633	-449.1322631835938	603.62451171875	364.9451904296875	-414.0072021484375	531.5609741210938	66.57996368408203	-627.149169921875	502.0786437988281	50.31195068359375	-566.953369140625	617.545654296875	36.79946136474609	-554.9453125	337.7474365234375	967.2782592773438	-113.9928741455078	576.4354248046875	28.55350494384766	-391.3053283691406	694.3934326171875	703.0430297851562	-155.88818359375	nan	nan	nan	nan	nan	nan	nan	nan	nan	
409	4.08	517.2125244140625	965.4680786132812	-95.12712097167969	416.5152893066406	1030.467163085938	-121.5470199584961	450.2752685546875	1214.838989257812	-360.5931091308594	401.9170837402344	1145.609741210938	-104.9425201416016	385.1395568847656	1392.985595703125	-144.8239898681641	429.7403564453125	1313.834106445312	-298.8080749511719	452.9429016113281	1254.907104492188	-80.37284851074219	279.5653686523438	1351.989624023438	-153.2259674072266	248.9178771972656	1356.279907226562	-254.7042694091797	179.3352661132812	1231.181762695312	-257.5326538085938	191.9964447021484	1030.698120117188	-303.3522644042969	227.4183044433594	1007.713073730469	-226.3261871337891	320.8845825195312	848.8640747070312	-399.4120178222656	254.0955200195312	819.743896484375	-404.8839416503906	212.3780517578125	934.097412109375	-344.1551818847656	368.3570251464844	679.507568359375	-451.0177612304688	282.0479736328125	738.8348999023438	-428.9766540527344	338.2384948730469	764.231201171875	-453.0128173828125	556.5365600585938	1374.840576171875	-173.9384155273438	619.6670532226562	1319.202758789062	-149.1541290283203	664.2880859375	1058.890014648438	-99.15694427490234	571.2779541015625	1048.53466796875	-105.2347183227539	668.8231811523438	818.7971801757812	-172.3623657226562	717.6454467773438	831.4828491210938	-103.5959167480469	689.0740966796875	992.8162231445312	-106.4687042236328	672.4986572265625	637.9329833984375	-138.9819793701172	727.0160522460938	717.1867065429688	-103.9592819213867	471.8921508789062	1552.735717773438	-161.3763885498047	349.5555114746094	1596.668334960938	-330.1193237304688	442.29150390625	1598.637084960938	-329.7385559082031	325.4562377929688	1540.526733398438	-164.5043334960938	253.0164489746094	922.3903198242188	-202.3149871826172	628.4391479492188	913.4598999023438	-187.9595642089844	567.1145629882812	922.550537109375	-311.5199584960938	317.4754028320312	923.940673828125	-339.3934326171875	293.4447021484375	462.2976989746094	-181.9311828613281	270.373046875	602.4118041992188	-211.2573852539062	266.5210571289062	69.59816741943359	47.39372253417969	270.1254272460938	259.5516967773438	-65.97390747070312	434.2846069335938	33.31808853149414	-80.34949493408203	422.2574462890625	38.83979415893555	-0.9874085783958435	325.7906188964844	42.16648483276367	-57.09173965454102	289.9951477050781	85.90381622314453	117.36474609375	609.462646484375	478.6796569824219	-367.954833984375	635.0844116210938	724.3076171875	-289.9284973144531	618.7006225585938	35.20531845092773	-449.8374328613281	605.5169067382812	365.2502136230469	-419.8190002441406	533.2164306640625	62.92403793334961	-629.0445556640625	503.4977416992188	48.24847793579102	-568.6060791015625	618.8137817382812	34.21100234985352	-555.665771484375	341.5728759765625	967.9806518554688	-121.623291015625	576.76318359375	29.50777435302734	-392.1265258789062	699.63720703125	703.1448974609375	-168.5807037353516	nan	nan	nan	nan	nan	nan	nan	nan	nan	
